<svg width="500" height="92" viewBox="0 0 500 92" fill="none" xmlns="http://www.w3.org/2000/svg">
  <path d="M22.4971 1.77856V39.2733H52.4935V69.2698H89.9883V1.77856H22.4971Z" fill="#4A86FF"/>
  <path d="M0 46.7727H44.9941V91.7668H0V46.7727Z" fill="#4A86FF"/>
  <path d="M112.979 45.9196H123.206V28.5063H137.2V19.9241H123.206V9.03673H139.115V0.530301H112.979V45.9196ZM151.842 45.9196H162.135V0.530301H151.842V45.9196ZM200.403 45.9196H209.905V0.530301H200.078V24.3505H199.742L187.275 0.530301H176.918V45.9196H186.745V19.989H187.08L200.403 45.9196ZM224.818 45.9196H252.123V37.4132H235.045V27.2509H249.688V18.7336H235.045V9.03673H252.123V0.530301H224.818V45.9196ZM288.941 45.9196H300.359L288.216 22.8895L300.229 0.530301H289.136L281.885 15.238H281.354L274.233 0.530301H262.816L274.829 23.0951L262.621 45.9196H273.638L281.03 30.7465H281.549L288.941 45.9196ZM342.977 45.9196H356.441L365.077 0.530301H354.85L349.709 34.5019H349.309L342.718 0.530301H331.56L325.099 34.5019H324.698L319.222 0.530301H308.93L317.512 45.9196H330.965L336.776 16.1687H337.177L342.977 45.9196ZM379.622 44.4369C381.981 45.7789 385.91 46.4499 391.408 46.4499C396.949 46.4499 400.888 45.7789 403.248 44.4369C405.596 43.0949 407.057 40.9521 407.631 37.9976C408.204 35.0539 408.496 30.1297 408.496 23.2249C408.496 16.3202 408.204 11.396 407.631 8.4415C407.068 5.4978 405.596 3.35496 403.248 2.01297C400.888 0.670992 396.949 0 391.408 0C385.91 0 381.981 0.670992 379.622 2.01297C377.274 3.35496 375.802 5.50862 375.207 8.47397C374.611 11.4501 374.319 16.3635 374.319 23.2249C374.319 30.0864 374.611 34.9998 375.207 37.9651C375.802 40.9413 377.274 43.0949 379.622 44.4369ZM396.191 37.2075C395.369 37.6945 393.778 37.9326 391.408 37.9326C389.027 37.9326 387.436 37.6945 386.624 37.2075C385.802 36.7313 385.293 35.5842 385.066 33.7768C384.849 31.9803 384.741 28.463 384.741 23.2249C384.741 17.9869 384.849 14.4696 385.066 12.6623C385.293 10.8657 385.802 9.71855 386.624 9.23154C387.436 8.75535 389.027 8.50644 391.408 8.50644C393.778 8.50644 395.369 8.75535 396.191 9.23154C397.003 9.71855 397.522 10.8657 397.739 12.6623C397.955 14.4696 398.064 17.9869 398.064 23.2249C398.064 28.463 397.955 31.9803 397.739 33.7768C397.522 35.5842 397.003 36.7313 396.191 37.2075ZM444.514 45.9196H455.271L448.94 28.4305C451.094 27.3808 452.522 25.7249 453.226 23.4522C453.929 21.1903 454.275 18.4523 454.275 15.238C454.275 11.8073 453.961 9.05838 453.323 6.99129C452.684 4.92421 451.418 3.33331 449.524 2.20778C447.641 1.09307 444.827 0.530301 441.083 0.530301H422.414V45.9196H432.641V30.0214H439.232L444.514 45.9196ZM441.905 21.1146C441.094 21.4176 439.719 21.5691 437.782 21.5691H432.641V9.03673H437.847C439.784 9.03673 441.159 9.17743 441.97 9.46963C442.793 9.75101 443.312 10.303 443.561 11.1146C443.799 11.9263 443.918 13.3224 443.918 15.3029C443.918 17.2401 443.788 18.6146 443.529 19.4263C443.258 20.2488 442.728 20.8007 441.905 21.1146ZM468.063 0.530301V45.9196H482.316C488.041 45.9196 492.121 45.2594 494.556 43.9391C497.002 42.6187 498.517 40.5084 499.113 37.608C499.708 34.7076 500 29.9132 500 23.2249C500 16.5367 499.708 11.7423 499.113 8.84193C498.517 5.94152 497.002 3.83114 494.556 2.5108C492.121 1.19047 488.041 0.530301 482.316 0.530301H468.063ZM482.057 37.4132H478.29V9.03673H482.057C484.784 9.03673 486.602 9.264 487.5 9.6969C488.398 10.1406 488.983 11.2229 489.243 12.9653C489.513 14.6969 489.643 18.1168 489.643 23.2249C489.643 28.3223 489.524 31.7422 489.275 33.4846C489.037 35.2162 488.453 36.3093 487.533 36.753C486.613 37.1859 484.784 37.4132 482.057 37.4132Z" fill="#4A86FF"/>
  <path d="M127.081 91.337L122.524 83.0903C123.682 82.6466 124.591 81.9648 125.252 81.0557C125.901 80.1574 126.226 79.1076 126.226 77.9063C126.226 76.0232 125.641 74.573 124.472 73.5774C123.293 72.5817 121.604 72.073 119.408 72.073H112.979V91.4993H115.566V83.6314H120.089L124.31 91.4993H127.081V91.337ZM119.483 81.5427H115.566V74.1726H119.408C120.836 74.1726 121.897 74.4973 122.589 75.1574C123.282 75.8176 123.628 76.7375 123.628 77.9063C123.628 78.5882 123.466 79.205 123.152 79.757C122.838 80.3089 122.373 80.7526 121.745 81.0665C121.128 81.3912 120.371 81.5427 119.483 81.5427ZM147.416 84.9626V83.8587C147.416 82.4734 147.2 81.2505 146.767 80.1899C146.345 79.1293 145.684 78.2959 144.808 77.7007C143.92 77.0947 142.806 76.8025 141.464 76.8025C140.36 76.8025 139.321 77.0947 138.358 77.6899C137.394 78.2851 136.615 79.1509 136.031 80.2765C135.446 81.402 135.154 82.7115 135.154 84.2158V84.7894C135.154 86.1314 135.425 87.3327 135.977 88.3933C136.518 89.4539 137.297 90.2764 138.303 90.8716C139.31 91.4669 140.468 91.7699 141.778 91.7699C143.098 91.7699 144.202 91.5101 145.089 90.9907C145.977 90.4604 146.691 89.8002 147.221 88.9777L145.717 87.8089C145.241 88.4366 144.689 88.9236 144.083 89.2591C143.477 89.5946 142.752 89.7677 141.918 89.7677C141.063 89.7677 140.316 89.5513 139.678 89.1292C139.039 88.7071 138.552 88.1335 138.206 87.4084C137.86 86.6725 137.676 85.8608 137.643 84.9626H147.416ZM144.916 82.7764V82.9604H137.73C137.892 81.6401 138.314 80.612 138.974 79.8868C139.635 79.1617 140.468 78.8046 141.464 78.8046C142.622 78.8046 143.466 79.1834 144.007 79.941C144.537 80.6985 144.84 81.6509 144.916 82.7764ZM167.784 89.9192C167.686 89.3781 167.643 88.8586 167.643 88.35V81.6293C167.643 80.5795 167.416 79.692 166.961 78.9669C166.518 78.2418 165.879 77.7007 165.078 77.3436C164.277 76.9756 163.336 76.8025 162.275 76.8025C161.15 76.8025 160.154 77.0081 159.277 77.4193C158.412 77.8306 157.741 78.3717 157.254 79.0319C156.777 79.6812 156.539 80.363 156.539 81.0665H159.028C159.028 80.6552 159.158 80.2765 159.418 79.9301C159.689 79.573 160.057 79.2916 160.522 79.086C160.998 78.8804 161.528 78.7721 162.124 78.7721C163.098 78.7721 163.855 79.0211 164.375 79.5297C164.894 80.0275 165.154 80.7202 165.154 81.5968V82.744H162.73C161.399 82.744 160.251 82.928 159.277 83.2851C158.303 83.6531 157.546 84.1834 157.026 84.8976C156.496 85.6119 156.225 86.4777 156.225 87.495C156.225 88.2851 156.431 89.0102 156.832 89.6595C157.243 90.3089 157.816 90.8175 158.552 91.1963C159.299 91.5751 160.154 91.7699 161.106 91.7699C161.951 91.7699 162.708 91.6075 163.412 91.2829C164.104 90.9582 164.71 90.5253 165.208 89.995C165.284 90.6552 165.403 91.153 165.554 91.4993H168.152V91.2829C167.989 90.9149 167.87 90.4604 167.784 89.9192ZM163.065 89.3348C162.567 89.5296 162.037 89.627 161.474 89.627C160.879 89.627 160.381 89.5188 159.981 89.3024C159.57 89.0859 159.256 88.7937 159.039 88.4149C158.834 88.047 158.725 87.6249 158.725 87.1487C158.725 86.2721 159.104 85.6011 159.862 85.1574C160.609 84.7028 161.702 84.4864 163.119 84.4864H165.154V87.4734C164.97 87.8522 164.699 88.2093 164.342 88.534C163.985 88.8695 163.563 89.1292 163.065 89.3348ZM178.087 91.4993H180.587V71.0125H178.087V91.4993ZM189.504 84.2375H196.03V82.2245H189.504V84.2375ZM218.584 74.1726V72.073H212.361H203.584V74.1726H209.797V91.4993H212.361V74.1726H218.584ZM230.013 72.2137C229.753 71.9432 229.385 71.8133 228.931 71.8133C228.465 71.8133 228.108 71.9432 227.848 72.2137C227.599 72.4735 227.47 72.8198 227.47 73.2202C227.47 73.6207 227.599 73.9562 227.848 74.2159C228.108 74.4756 228.465 74.6163 228.931 74.6163C229.385 74.6163 229.753 74.4756 230.013 74.2159C230.273 73.9562 230.413 73.6207 230.413 73.2202C230.413 72.8198 230.273 72.4735 230.013 72.2137ZM227.664 91.4993H230.154V77.0622H227.664V91.4993ZM259.45 78.0687C258.627 77.2245 257.426 76.8025 255.846 76.8025C254.839 76.8025 253.952 77.0081 253.173 77.4085C252.394 77.8198 251.755 78.3825 251.257 79.0968C250.889 78.3176 250.348 77.744 249.634 77.3652C248.92 76.9864 248.086 76.8025 247.134 76.8025C246.225 76.8025 245.402 76.954 244.699 77.2678C243.985 77.5925 243.379 78.0362 242.881 78.6314L242.805 77.0622H240.435V91.4993H242.935V80.9042C243.216 80.2656 243.627 79.7678 244.179 79.4107C244.721 79.0427 245.402 78.8695 246.225 78.8695C248.281 78.8695 249.309 79.9085 249.309 81.9972V91.4993H251.809V81.9323C251.863 81.3587 252.036 80.8392 252.307 80.3739C252.578 79.9085 252.956 79.5405 253.433 79.27C253.909 78.9994 254.472 78.8695 255.11 78.8695C256.117 78.8695 256.885 79.0968 257.404 79.5622C257.924 80.0384 258.184 80.8392 258.184 81.9864V91.4993H260.673V82.0189C260.673 80.2223 260.262 78.9128 259.45 78.0687ZM282.393 84.9626V83.8587C282.393 82.4734 282.177 81.2505 281.755 80.1899C281.322 79.1293 280.673 78.2959 279.785 77.7007C278.898 77.0947 277.783 76.8025 276.441 76.8025C275.337 76.8025 274.309 77.0947 273.346 77.6899C272.372 78.2851 271.603 79.1509 271.008 80.2765C270.424 81.402 270.132 82.7115 270.132 84.2158V84.7894C270.132 86.1314 270.402 87.3327 270.954 88.3933C271.495 89.4539 272.274 90.2764 273.281 90.8716C274.287 91.4669 275.445 91.7699 276.766 91.7699C278.075 91.7699 279.179 91.5101 280.067 90.9907C280.965 90.4604 281.668 89.8002 282.209 88.9777L280.694 87.8089C280.218 88.4366 279.677 88.9236 279.06 89.2591C278.454 89.5946 277.729 89.7677 276.896 89.7677C276.041 89.7677 275.294 89.5513 274.666 89.1292C274.028 88.7071 273.53 88.1335 273.184 87.4084C272.837 86.6725 272.653 85.8608 272.632 84.9626H282.393ZM279.893 82.7764V82.9604H272.707C272.88 81.6401 273.292 80.612 273.952 79.8868C274.612 79.1617 275.445 78.8046 276.441 78.8046C277.599 78.8046 278.443 79.1834 278.984 79.941C279.525 80.6985 279.828 81.6509 279.893 82.7764ZM317.794 74.1726V72.073H311.56H302.783V74.1726H309.006V91.4993H311.56V74.1726H317.794ZM332.263 76.8566C332.025 76.8241 331.83 76.8025 331.668 76.8025C330.9 76.8025 330.239 76.9648 329.666 77.3003C329.092 77.6358 328.627 78.1011 328.248 78.7072L328.194 77.0622H325.77V91.4993H328.27V81.2397C328.54 80.5795 328.952 80.0708 329.503 79.7029C330.045 79.3457 330.726 79.1617 331.549 79.1617C331.971 79.1617 332.382 79.1942 332.761 79.27V76.9864C332.674 76.9431 332.512 76.8999 332.263 76.8566ZM352.122 89.9192C352.025 89.3781 351.982 88.8586 351.982 88.35V81.6293C351.982 80.5795 351.754 79.692 351.3 78.9669C350.845 78.2418 350.218 77.7007 349.417 77.3436C348.616 76.9756 347.674 76.8025 346.603 76.8025C345.488 76.8025 344.493 77.0081 343.616 77.4193C342.75 77.8306 342.068 78.3717 341.592 79.0319C341.116 79.6812 340.867 80.363 340.867 81.0665H343.367C343.367 80.6552 343.497 80.2765 343.757 79.9301C344.027 79.573 344.384 79.2916 344.861 79.086C345.337 78.8804 345.867 78.7721 346.462 78.7721C347.436 78.7721 348.194 79.0211 348.713 79.5297C349.233 80.0275 349.493 80.7202 349.493 81.5968V82.744H347.057C345.737 82.744 344.59 82.928 343.616 83.2851C342.642 83.6531 341.884 84.1834 341.354 84.8976C340.835 85.6119 340.564 86.4777 340.564 87.495C340.564 88.2851 340.77 89.0102 341.17 89.6595C341.581 90.3089 342.155 90.8175 342.891 91.1963C343.638 91.5751 344.482 91.7699 345.445 91.7699C346.278 91.7699 347.047 91.6075 347.75 91.2829C348.443 90.9582 349.049 90.5253 349.547 89.995C349.622 90.6552 349.741 91.153 349.893 91.4993H352.49V91.2829C352.328 90.9149 352.209 90.4604 352.122 89.9192ZM347.404 89.3348C346.906 89.5296 346.376 89.627 345.802 89.627C345.218 89.627 344.72 89.5188 344.309 89.3024C343.908 89.0859 343.594 88.7937 343.378 88.4149C343.161 88.047 343.064 87.6249 343.064 87.1487C343.064 86.2721 343.432 85.6011 344.19 85.1574C344.947 84.7028 346.04 84.4864 347.458 84.4864H349.493V87.4734C349.298 87.8522 349.027 88.2093 348.67 88.534C348.324 88.8695 347.891 89.1292 347.404 89.3348ZM373.583 82.0405C373.583 78.5449 372.036 76.8025 368.951 76.8025C368.075 76.8025 367.263 76.9756 366.538 77.3328C365.813 77.6899 365.185 78.1877 364.655 78.8371L364.579 77.0622H362.22V91.4993H364.709V81.1747C365.066 80.4713 365.542 79.9085 366.159 79.4972C366.765 79.0752 367.458 78.8695 368.215 78.8695C369.179 78.8695 369.893 79.1185 370.369 79.6163C370.845 80.1141 371.083 80.915 371.083 82.0189V91.4993H373.583V82.0405ZM384.871 83.6639C385.748 84.3132 387.046 84.8111 388.756 85.1682C389.665 85.3522 390.358 85.5686 390.845 85.8175C391.321 86.0665 391.646 86.337 391.819 86.6292C391.981 86.9214 392.068 87.2677 392.068 87.6682C392.068 88.0686 391.949 88.4257 391.711 88.7396C391.473 89.0643 391.116 89.3132 390.65 89.4863C390.185 89.6703 389.622 89.7677 388.973 89.7677C388.41 89.7677 387.88 89.6812 387.382 89.4972C386.873 89.324 386.462 89.0318 386.116 88.6206C385.78 88.2201 385.596 87.7006 385.564 87.0621H383.064C383.064 87.8738 383.291 88.6422 383.756 89.3673C384.222 90.0816 384.904 90.666 385.791 91.1097C386.689 91.5426 387.75 91.7699 388.973 91.7699C390.087 91.7699 391.061 91.5859 391.906 91.2288C392.75 90.8608 393.41 90.363 393.864 89.7136C394.33 89.0751 394.568 88.3283 394.568 87.495C394.568 86.7266 394.373 86.0665 394.005 85.5253C393.637 84.9842 393.074 84.5188 392.317 84.1509C391.57 83.7721 390.585 83.4474 389.373 83.1769C388.475 82.9821 387.793 82.7764 387.317 82.5708C386.841 82.3652 386.505 82.1379 386.321 81.889C386.148 81.6293 386.051 81.3154 386.051 80.9366C386.051 80.5578 386.148 80.2115 386.354 79.8868C386.549 79.5622 386.862 79.3024 387.295 79.0968C387.717 78.902 388.258 78.8046 388.908 78.8046C389.525 78.8046 390.055 78.9237 390.51 79.1617C390.975 79.4107 391.321 79.7245 391.559 80.1033C391.797 80.4929 391.916 80.8825 391.916 81.2938H394.416C394.416 80.4604 394.2 79.7029 393.756 79.0211C393.313 78.3392 392.674 77.7981 391.841 77.3977C391.007 76.9973 390.023 76.8025 388.908 76.8025C387.858 76.8025 386.927 76.9864 386.116 77.376C385.304 77.7548 384.665 78.2635 384.222 78.902C383.778 79.5514 383.562 80.2548 383.562 81.0124C383.562 82.1487 383.994 83.0254 384.871 83.6639ZM404.341 91.4993H406.83V71.0125H404.341V91.4993ZM428.269 89.9192C428.182 89.3781 428.139 88.8586 428.139 88.35V81.6293C428.139 80.5795 427.912 79.692 427.457 78.9669C427.003 78.2418 426.375 77.7007 425.574 77.3436C424.763 76.9756 423.832 76.8025 422.76 76.8025C421.646 76.8025 420.65 77.0081 419.773 77.4193C418.908 77.8306 418.226 78.3717 417.75 79.0319C417.263 79.6812 417.025 80.363 417.025 81.0665H419.524C419.524 80.6552 419.654 80.2765 419.914 79.9301C420.174 79.573 420.542 79.2916 421.018 79.086C421.483 78.8804 422.024 78.7721 422.62 78.7721C423.594 78.7721 424.34 79.0211 424.86 79.5297C425.379 80.0275 425.639 80.7202 425.639 81.5968V82.744H423.215C421.895 82.744 420.737 82.928 419.763 83.2851C418.789 83.6531 418.042 84.1834 417.512 84.8976C416.981 85.6119 416.721 86.4777 416.721 87.495C416.721 88.2851 416.916 89.0102 417.328 89.6595C417.728 90.3089 418.302 90.8175 419.048 91.1963C419.795 91.5751 420.639 91.7699 421.602 91.7699C422.436 91.7699 423.204 91.6075 423.908 91.2829C424.6 90.9582 425.195 90.5253 425.693 89.995C425.78 90.6552 425.888 91.153 426.04 91.4993H428.648V91.2829C428.485 90.9149 428.356 90.4604 428.269 89.9192ZM423.561 89.3348C423.063 89.5296 422.533 89.627 421.96 89.627C421.375 89.627 420.877 89.5188 420.466 89.3024C420.055 89.0859 419.752 88.7937 419.535 88.4149C419.319 88.047 419.211 87.6249 419.211 87.1487C419.211 86.2721 419.589 85.6011 420.347 85.1574C421.105 84.7028 422.198 84.4864 423.615 84.4864H425.639V87.4734C425.455 87.8522 425.185 88.2093 424.827 88.534C424.47 88.8695 424.048 89.1292 423.561 89.3348ZM444.492 91.4993L444.481 89.508C444.34 89.5513 444.167 89.5837 443.94 89.6162C443.723 89.6379 443.518 89.6595 443.334 89.6595C442.847 89.6595 442.457 89.5405 442.176 89.3024C441.884 89.0643 441.743 88.6097 441.743 87.9279V78.9453H444.438V77.0622H441.743V73.5557H439.254V77.0622H436.624V78.9453H439.254V87.9063C439.254 89.2699 439.557 90.2547 440.163 90.8608C440.769 91.4669 441.581 91.7699 442.587 91.7699C443.291 91.7699 443.918 91.6725 444.492 91.4993ZM456.234 72.2137C455.974 71.9432 455.617 71.8133 455.152 71.8133C454.687 71.8133 454.329 71.9432 454.081 72.2137C453.821 72.4735 453.691 72.8198 453.691 73.2202C453.691 73.6207 453.821 73.9562 454.081 74.2159C454.329 74.4756 454.687 74.6163 455.152 74.6163C455.617 74.6163 455.974 74.4756 456.234 74.2159C456.505 73.9562 456.635 73.6207 456.635 73.2202C456.635 72.8198 456.505 72.4735 456.234 72.2137ZM453.886 91.4993H456.375V77.0622H453.886V91.4993ZM466.84 80.3739C466.299 81.4886 466.039 82.744 466.039 84.1401V84.4431C466.039 85.8392 466.299 87.0946 466.84 88.1985C467.381 89.3024 468.15 90.179 469.135 90.8175C470.13 91.4452 471.288 91.7699 472.609 91.7699C473.94 91.7699 475.098 91.4452 476.083 90.8175C477.078 90.179 477.836 89.3024 478.377 88.1985C478.907 87.0946 479.178 85.8392 479.178 84.4431V84.1401C479.178 82.744 478.907 81.4886 478.377 80.3739C477.836 79.2591 477.078 78.3934 476.083 77.7548C475.087 77.1163 473.918 76.8025 472.587 76.8025C471.267 76.8025 470.119 77.1163 469.124 77.7548C468.128 78.3934 467.37 79.2591 466.84 80.3739ZM468.994 87.1271C468.68 86.3154 468.528 85.4171 468.528 84.4431V84.1401C468.528 83.1552 468.68 82.2678 468.994 81.4561C469.297 80.6444 469.751 80.0059 470.368 79.5189C470.974 79.0427 471.71 78.8046 472.587 78.8046C473.464 78.8046 474.21 79.0427 474.827 79.5189C475.444 80.0059 475.899 80.6444 476.212 81.4561C476.526 82.2678 476.678 83.1552 476.678 84.1401V84.4431C476.678 85.4171 476.526 86.3154 476.223 87.1271C475.909 87.9279 475.455 88.5773 474.838 89.0534C474.221 89.5296 473.485 89.7677 472.609 89.7677C471.732 89.7677 470.985 89.5296 470.368 89.0534C469.751 88.5773 469.297 87.9279 468.994 87.1271ZM500 82.0405C500 78.5449 498.453 76.8025 495.368 76.8025C494.492 76.8025 493.68 76.9756 492.955 77.3328C492.23 77.6899 491.602 78.1877 491.072 78.8371L490.996 77.0622H488.637V91.4993H491.126V81.1747C491.483 80.4713 491.97 79.9085 492.576 79.4972C493.182 79.0752 493.875 78.8695 494.632 78.8695C495.595 78.8695 496.31 79.1185 496.786 79.6163C497.262 80.1141 497.5 80.915 497.5 82.0189V91.4993H500V82.0405Z" fill="#4A86FF"/>
</svg>
